<svg width="512" height="512" viewBox="0 0 512 512" xmlns="http://www.w3.org/2000/svg">
  <defs>
    <linearGradient id="g" x1="0" y1="0" x2="1" y2="1">
      <stop offset="0%" stop-color="#86efac" />
      <stop offset="100%" stop-color="#22c55e" />
    </linearGradient>
  </defs>
  <rect width="512" height="512" rx="64" fill="#f8fafc" />
  <circle cx="256" cy="260" r="144" fill="url(#g)" />
  <path d="M256 128c-35.3 0-64 28.7-64 64 0 9.4 2.2 18.3 6.1 26.2C199.7 219.6 180 248.9 180 284c0 52.9 43.1 96 96 96s96-43.1 96-96c0-35.1-19.7-64.4-38.1-75.8 3.9-7.9 6.1-16.8 6.1-26.2 0-35.3-28.7-64-64-64z" fill="#ffffff" opacity="0.3" />
  <path d="M232 112c0-13.3 10.7-24 24-24s24 10.7 24 24v56h-48v-56z" fill="#4d7c0f" />
  <path d="M186 192c0-38.9 31.1-70 70-70s70 31.1 70 70-31.1 70-70 70-70-31.1-70-70z" fill="#ffffff" opacity="0.45" />
  <path d="M256 376c-53 0-96-43-96-96s43-96 96-96 96 43 96 96-43 96-96 96zm0-172c-41.4 0-75 33.6-75 75s33.6 75 75 75 75-33.6 75-75-33.6-75-75-75z" fill="#ffffff" />
  <text x="256" y="470" font-family="Arial, Helvetica, sans-serif" font-size="48" fill="#475569" text-anchor="middle">Rancho</text>
</svg>
